<svg xmlns="http://www.w3.org/2000/svg" width="80" height="80" viewBox="0 0 80 80" fill="none">
  <path d="M0 64.0957C0 65.72 1.06 66.7471 2.71714 66.7471H4.57429C6.19714 66.7471 7.25714 65.7185 7.25714 64.0957V59.39C7.62143 59.49 8.68286 59.5557 9.44429 59.5557H70.5871C71.35 59.5557 72.3786 59.4885 72.7429 59.39V64.0957C72.7429 65.72 73.8029 66.7471 75.4271 66.7471H77.3157C78.94 66.7471 80 65.7185 80 64.0957V45.2385C80 39.24 76.6529 35.96 70.5886 35.96H9.41143C3.34714 35.96 0 39.24 0 45.2385V64.0957Z" fill="#763BFF"/>
  <path d="M7.55713 31.4201H15.5757V26.8787C15.5757 23.9301 17.2328 22.3387 20.2157 22.3387H31.98C34.9628 22.3387 36.62 23.9301 36.62 26.8787V31.4187H43.7771V26.8787C43.7771 23.9301 45.4343 22.3387 48.5828 22.3387H59.6186C62.7671 22.3387 64.4243 23.9301 64.4243 26.8787V31.4187H72.4443V22.3716C72.4443 16.5058 69.33 13.5244 63.63 13.5244H16.3714C10.7043 13.5244 7.55713 16.5058 7.55713 22.3716V31.4201Z" fill="#C1A6FF"/>
</svg>