<svg width="24" height="24" viewBox="0 0 24 24" fill="none" xmlns="http://www.w3.org/2000/svg">
<path d="M19 21L18.5641 21.6103L19.75 21H19ZM12 16L12.4359 15.3897L12 15.0783L11.5641 15.3897L12 16ZM5 21H4.25L5.43593 21.6103L5 21ZM5 3V2.25H4.25V3H5ZM19 3H19.75V2.25H19V3ZM19.4359 20.3897L12.4359 15.3897L11.5641 16.6103L18.5641 21.6103L19.4359 20.3897ZM11.5641 15.3897L4.56407 20.3897L5.43593 21.6103L12.4359 16.6103L11.5641 15.3897ZM5.75 21V3H4.25V21H5.75ZM5 3.75H19V2.25H5V3.75ZM18.25 3V21H19.75V3H18.25Z" fill="#BDBDBD"/>
</svg>
