<svg xmlns="http://www.w3.org/2000/svg" width="72" height="72" viewBox="0 0 72 72" fill="none">
  <path d="M36 21C41.142 21 42 16.98 42 13.668C42 10.35 39.786 4.5 36 4.5C32.214 4.5 30 10.353 30 13.668C30 16.983 30.858 21 36 21ZM10.5 30.75C10.5 28.9598 11.2112 27.2429 12.477 25.977C13.7429 24.7112 15.4598 24 17.25 24H54.75C56.5402 24 58.2571 24.7112 59.523 25.977C60.7888 27.2429 61.5 28.9598 61.5 30.75V33.375L50.598 41.553C50.0059 41.9969 49.2958 42.2556 48.5569 42.2967C47.8181 42.3378 47.0837 42.1594 46.446 41.784L40.326 38.184C39.0086 37.4098 37.5022 37.0167 35.9745 37.0485C34.4468 37.0803 32.958 37.5357 31.674 38.364L26.391 41.772C25.7876 42.161 25.0852 42.3687 24.3673 42.3703C23.6494 42.3719 22.9461 42.1673 22.341 41.781L10.5 34.224V30.75ZM10.5 39.564V55.5H8.25C7.65326 55.5 7.08097 55.7371 6.65901 56.159C6.23705 56.581 6 57.1533 6 57.75C6 58.3467 6.23705 58.919 6.65901 59.341C7.08097 59.7629 7.65326 60 8.25 60H63.75C64.3467 60 64.919 59.7629 65.341 59.341C65.7629 58.919 66 58.3467 66 57.75C66 57.1533 65.7629 56.581 65.341 56.159C64.919 55.7371 64.3467 55.5 63.75 55.5H61.5V39L53.298 45.15C51.9962 46.1267 50.4345 46.6966 48.8096 46.7879C47.1847 46.8791 45.569 46.4878 44.166 45.663L38.046 42.063C37.4472 41.7109 36.7625 41.5321 36.068 41.5464C35.3736 41.5607 34.6968 41.7676 34.113 42.144L28.833 45.552C27.5056 46.4091 25.9601 46.867 24.38 46.8712C22.8 46.8755 21.252 46.4259 19.92 45.576L10.5 39.564Z" fill="#C1A6FF"/>
  <path d="M36 21C41.142 21 42 16.98 42 13.668C42 10.35 39.786 4.5 36 4.5C32.214 4.5 30 10.353 30 13.668C30 16.983 30.858 21 36 21ZM10.5 39.564V55.5H8.25C7.65326 55.5 7.08097 55.7371 6.65901 56.159C6.23705 56.581 6 57.1533 6 57.75C6 58.3467 6.23705 58.919 6.65901 59.341C7.08097 59.7629 7.65326 60 8.25 60H63.75C64.3467 60 64.919 59.7629 65.341 59.341C65.7629 58.919 66 58.3467 66 57.75C66 57.1533 65.7629 56.581 65.341 56.159C64.919 55.7371 64.3467 55.5 63.75 55.5H61.5V39L53.298 45.15C51.9962 46.1267 50.4345 46.6966 48.8096 46.7879C47.1847 46.8791 45.569 46.4878 44.166 45.663L38.046 42.063C37.4472 41.7109 36.7625 41.5321 36.068 41.5464C35.3736 41.5607 34.6968 41.7676 34.113 42.144L28.833 45.552C27.5056 46.4091 25.9601 46.867 24.38 46.8712C22.8 46.8755 21.252 46.4259 19.92 45.576L10.5 39.564Z" fill="#763BFF"/>
</svg>