<svg xmlns="http://www.w3.org/2000/svg" width="62" height="62" viewBox="0 0 62 62" fill="none">
  <path d="M55.8 52.7001V49.6001H5.03063e-05V52.7001L12.4 58.9001H43.4L55.8 52.7001Z" fill="#C1A6FF"/>
  <path d="M49.6 34.0999H55.8C57.4443 34.0999 59.0213 33.4466 60.1841 32.2839C61.3468 31.1212 62 29.5442 62 27.8999V15.4999C62 12.0899 59.21 9.29985 55.8 9.29985H49.6V6.09985C49.6 4.443 48.2569 3.09985 46.6 3.09985H9.2C7.54314 3.09985 6.2 4.443 6.2 6.09985V34.0999C6.2 37.3885 7.50643 40.5425 9.83188 42.868C12.1573 45.1934 15.3113 46.4999 18.6 46.4999H37.2C40.4887 46.4999 43.6427 45.1934 45.9681 42.868C48.2936 40.5425 49.6 37.3885 49.6 34.0999ZM49.6 27.8999V15.4999H55.8V27.8999H49.6Z" fill="#763BFF"/>
</svg>