<svg xmlns="http://www.w3.org/2000/svg" width="72" height="72" viewBox="0 0 72 72" fill="none">
  <path d="M52.5 36C51.3065 36 50.1619 35.5259 49.318 34.682C48.4741 33.8381 48 32.6935 48 31.5C48 30.3065 48.4741 29.1619 49.318 28.318C50.1619 27.4741 51.3065 27 52.5 27C53.6935 27 54.8381 27.4741 55.682 28.318C56.5259 29.1619 57 30.3065 57 31.5C57 32.6935 56.5259 33.8381 55.682 34.682C54.8381 35.5259 53.6935 36 52.5 36ZM43.5 24C42.3065 24 41.1619 23.5259 40.318 22.682C39.4741 21.8381 39 20.6935 39 19.5C39 18.3065 39.4741 17.1619 40.318 16.318C41.1619 15.4741 42.3065 15 43.5 15C44.6935 15 45.8381 15.4741 46.682 16.318C47.5259 17.1619 48 18.3065 48 19.5C48 20.6935 47.5259 21.8381 46.682 22.682C45.8381 23.5259 44.6935 24 43.5 24ZM28.5 24C27.3065 24 26.1619 23.5259 25.318 22.682C24.4741 21.8381 24 20.6935 24 19.5C24 18.3065 24.4741 17.1619 25.318 16.318C26.1619 15.4741 27.3065 15 28.5 15C29.6935 15 30.8381 15.4741 31.682 16.318C32.5259 17.1619 33 18.3065 33 19.5C33 20.6935 32.5259 21.8381 31.682 22.682C30.8381 23.5259 29.6935 24 28.5 24ZM19.5 36C18.3065 36 17.1619 35.5259 16.318 34.682C15.4741 33.8381 15 32.6935 15 31.5C15 30.3065 15.4741 29.1619 16.318 28.318C17.1619 27.4741 18.3065 27 19.5 27C20.6935 27 21.8381 27.4741 22.682 28.318C23.5259 29.1619 24 30.3065 24 31.5C24 32.6935 23.5259 33.8381 22.682 34.682C21.8381 35.5259 20.6935 36 19.5 36ZM36 9C28.8392 9 21.9716 11.8446 16.9081 16.9081C11.8446 21.9716 9 28.8392 9 36C9 43.1608 11.8446 50.0284 16.9081 55.0919C21.9716 60.1554 28.8392 63 36 63C37.1935 63 38.3381 62.5259 39.182 61.682C40.0259 60.8381 40.5 59.6935 40.5 58.5C40.5 57.33 40.05 56.28 39.33 55.5C38.64 54.69 38.19 53.64 38.19 52.5C38.19 51.3065 38.6641 50.1619 39.508 49.318C40.3519 48.4741 41.4965 48 42.69 48H48C51.9782 48 55.7936 46.4196 58.6066 43.6066C61.4196 40.7936 63 36.9782 63 33C63 19.74 50.91 9 36 9Z" fill="#763BFF"/>
</svg>