<svg xmlns="http://www.w3.org/2000/svg" width="64" height="64" viewBox="0 0 64 64" fill="none">
  <path fill-rule="evenodd" clip-rule="evenodd" d="M10.6394 16H53.3686C53.3571 15.9999 53.3456 15.9999 53.334 15.9999H42.6673L33.8673 7.1999C33.334 6.66657 32.7118 6.3999 32.0007 6.3999C31.2896 6.3999 30.6673 6.66657 30.134 7.1999L21.334 15.9999H10.6673C10.658 15.9999 10.6487 15.9999 10.6394 16ZM32.0007 10.9332L37.0673 15.9999H26.934L32.0007 10.9332Z" fill="#C1A6FF"/>
  <path fill-rule="evenodd" clip-rule="evenodd" d="M10.6673 16C9.20243 16.0018 7.94732 16.5244 6.90198 17.568C5.85665 18.6116 5.33398 19.8667 5.33398 21.3333V53.3333C5.33576 54.8018 5.85843 56.0578 6.90198 57.1013C7.94554 58.1449 9.20065 58.6667 10.6673 58.6667H53.334C54.8024 58.6684 56.0584 58.1467 57.102 57.1013C58.1455 56.056 58.6673 54.8 58.6673 53.3333V21.3333C58.6691 19.8684 58.1473 18.6133 57.102 17.568C56.0567 16.5227 54.8007 16 53.334 16H10.6673ZM25.0673 38.7333L30.0007 45.3333L36.934 36.0667C37.2007 35.7111 37.5562 35.5333 38.0007 35.5333C38.4451 35.5333 38.8007 35.7111 39.0673 36.0667L46.4007 45.8667C46.7562 46.3111 46.8007 46.7778 46.534 47.2667C46.2673 47.7556 45.8673 48 45.334 48H18.6673C18.134 48 17.734 47.7556 17.4673 47.2667C17.2007 46.7778 17.2451 46.3111 17.6007 45.8667L22.934 38.7333C23.2007 38.3778 23.5562 38.2 24.0007 38.2C24.4451 38.2 24.8007 38.3778 25.0673 38.7333ZM49.502 33.5013C48.7233 34.2782 47.7784 34.6667 46.6673 34.6667C45.5633 34.6738 44.6193 34.2853 43.8353 33.5013C43.0513 32.7173 42.662 31.7724 42.6673 30.6667C42.6727 29.5609 43.062 28.6169 43.8353 27.8347C44.6087 27.0524 45.5527 26.6631 46.6673 26.6667C47.782 26.6702 48.7269 27.0596 49.502 27.8347C50.2771 28.6098 50.6655 29.5538 50.6673 30.6667C50.6691 31.7796 50.2807 32.7244 49.502 33.5013Z" fill="#763BFF"/>
</svg>