<svg xmlns="http://www.w3.org/2000/svg" width="72" height="72" viewBox="0 0 72 72" fill="none">
  <path d="M47.5751 53.6665C46.4084 54.8094 44.8342 56.5808 46.8342 59.6665C48.8342 62.7522 46.8342 64.8094 45.834 65.6665" stroke="#C1A6FF" stroke-width="3" stroke-linecap="round"/>
  <path fill-rule="evenodd" clip-rule="evenodd" d="M30 24.4612C30 14.9278 37.735 7 47.3333 7C56.9317 7 64.6667 14.93 64.6667 24.4612C64.6667 29.8887 62.2443 35.2013 59.0312 39.1295C56.6912 41.9895 53.6838 44.3988 50.5595 45.4453L51.437 47.1982C51.602 47.5284 51.6799 47.8954 51.6633 48.2642C51.6467 48.633 51.5361 48.9914 51.3421 49.3055C51.148 49.6196 50.877 49.8788 50.5546 50.0587C50.2322 50.2386 49.8692 50.3331 49.5 50.3333H45.1667C44.7975 50.3331 44.4345 50.2386 44.1121 50.0587C43.7897 49.8788 43.5186 49.6196 43.3246 49.3055C43.1305 48.9914 43.02 48.633 43.0034 48.2642C42.9867 47.8954 43.0646 47.5284 43.2297 47.1982L44.105 45.4432C40.985 44.3988 37.9755 41.9873 35.6355 39.1273C32.4223 35.2013 30 29.8887 30 24.459V24.4612Z" fill="#C1A6FF"/>
  <path d="M37.5792 40.3958L37.5791 40.396C35.5825 42.8363 33.0673 45.0526 30.2982 46.4562C30.566 47.0509 30.6907 47.701 30.6613 48.3541C30.6293 49.0634 30.4167 49.7527 30.0435 50.3567C29.6704 50.9607 29.1491 51.4593 28.5291 51.8052C27.9091 52.1512 27.211 52.333 26.5011 52.3333H26.5H22.1667H22.1656C21.4556 52.333 20.7576 52.1512 20.1376 51.8052C19.5176 51.4593 18.9963 50.9607 18.6231 50.3567C18.25 49.7527 18.0373 49.0634 18.0054 48.3541C17.9759 47.7007 18.1008 47.0502 18.3689 46.4552C15.601 45.0521 13.0842 42.8341 11.0878 40.394L37.5792 40.3958ZM37.5792 40.3958C41.0079 36.2042 43.6667 30.4585 43.6667 24.4612C43.6667 13.8496 35.0603 5 24.3333 5C13.6073 5 5.00117 13.8461 5 24.459L37.5792 40.3958ZM5 24.4612C5.00064 30.4596 7.65895 36.2045 11.0876 40.3938L5 24.4612Z" fill="#F6F2FF" stroke="#F6F2FF" stroke-width="4"/>
  <path d="M24.5751 53.6665C23.4084 54.8094 21.8342 56.5808 23.8342 59.6665C25.8342 62.7522 23.8342 64.8094 22.834 65.6665" stroke="#763BFF" stroke-width="3" stroke-linecap="round"/>
  <path fill-rule="evenodd" clip-rule="evenodd" d="M7 24.4612C7 14.9278 14.735 7 24.3333 7C33.9317 7 41.6667 14.93 41.6667 24.4612C41.6667 29.8887 39.2443 35.2013 36.0312 39.1295C33.6912 41.9895 30.6838 44.3988 27.5595 45.4453L28.437 47.1982C28.602 47.5284 28.6799 47.8953 28.6633 48.2642C28.6467 48.633 28.5361 48.9914 28.3421 49.3055C28.148 49.6195 27.877 49.8788 27.5546 50.0587C27.2322 50.2386 26.8692 50.3331 26.5 50.3333H22.1667C21.7975 50.3331 21.4345 50.2386 21.1121 50.0587C20.7897 49.8788 20.5186 49.6195 20.3246 49.3055C20.1305 48.9914 20.02 48.633 20.0034 48.2642C19.9867 47.8953 20.0646 47.5284 20.2297 47.1982L21.105 45.4432C17.985 44.3988 14.9755 41.9873 12.6355 39.1273C9.42233 35.2013 7 29.8887 7 24.459V24.4612ZM24.42 15.372C24.5796 14.8201 24.9518 14.3542 25.4548 14.0767C25.9578 13.7992 26.5504 13.7328 27.1023 13.8922C30.686 14.93 33.429 17.8788 34.573 21.5188C34.6627 21.7915 34.6973 22.0792 34.6748 22.3653C34.6524 22.6514 34.5733 22.9303 34.4422 23.1856C34.3111 23.4409 34.1305 23.6676 33.9111 23.8525C33.6916 24.0375 33.4376 24.177 33.1638 24.263C32.89 24.3489 32.6018 24.3796 32.316 24.3533C32.0302 24.327 31.7525 24.2441 31.499 24.1095C31.2455 23.975 31.0212 23.7914 30.8393 23.5695C30.6573 23.3475 30.5212 23.0916 30.439 22.8167C29.6763 20.3835 27.9148 18.6393 25.8977 18.0543C25.3462 17.8943 24.8808 17.5219 24.6037 17.019C24.3267 16.516 24.2606 15.9236 24.42 15.372Z" fill="#763BFF"/>
</svg>