<svg width="24" height="24" viewBox="0 0 24 24" fill="none" xmlns="http://www.w3.org/2000/svg">
<path fill-rule="evenodd" clip-rule="evenodd" d="M13.9992 11.8998C15.2369 10.6372 16 8.90772 16 7C16 5.09228 15.2369 3.36279 13.9992 2.10018C14.3225 2.03449 14.6572 2 15 2C17.7614 2 20 4.23858 20 7C20 9.76142 17.7614 12 15 12C14.6572 12 14.3225 11.9655 13.9992 11.8998ZM19 22V20C19 17.6106 17.9525 15.4659 16.2916 14H17C20.3137 14 23 16.6863 23 20V22H19Z" fill="#212121"/>
<path d="M9 2C6.23858 2 4 4.23858 4 7C4 9.76142 6.23858 12 9 12C11.7614 12 14 9.76142 14 7C14 4.23858 11.7614 2 9 2Z" fill="#212121"/>
<path d="M7 14C3.68629 14 1 16.6863 1 20V22H17V20C17 16.6863 14.3137 14 11 14H7Z" fill="#212121"/>
</svg>
