<svg xmlns="http://www.w3.org/2000/svg" width="68" height="68" viewBox="0 0 68 68" fill="none">
  <path d="M40.1199 29.4666L25.9533 19.3516C23.9699 17.9349 21.3349 17.9349 19.3799 19.3516L5.21325 29.4666C3.71159 30.5432 2.83325 32.2432 2.83325 34.0849V56.6666C2.83325 58.2249 4.10825 59.4999 5.66659 59.4999H16.9999V42.4999H28.3333V59.4999H39.6666C41.2249 59.4999 42.4999 58.2249 42.4999 56.6666V34.0849C42.4999 32.2432 41.6216 30.5432 40.1199 29.4666Z" fill="#763BFF"/>
  <path d="M59.5849 8.5H33.9149C30.8266 8.5 28.3333 10.9933 28.3333 14.0817L28.5883 14.3367C28.8149 14.4783 29.0416 14.5917 29.2683 14.7333L43.4349 24.8483C45.5883 26.3783 47.1183 28.645 47.7983 31.1667H53.8333V36.8333H48.1666V42.5H53.8333V48.1667H48.1666V59.5H59.5849C62.6733 59.5 65.1666 57.0067 65.1666 53.9183V14.0817C65.1666 10.9933 62.6733 8.5 59.5849 8.5ZM53.8333 25.5H48.1666V19.8333H53.8333V25.5Z" fill="#C1A6FF"/>
</svg>