<svg xmlns="http://www.w3.org/2000/svg" width="157" height="50" viewBox="0 0 157 50" fill="none">
  <g clip-path="url(#clip0_3576_10164)">
    <path d="M19.9094 21.5909C24.6137 21.5909 28.442 25.4148 28.442 30.1137C28.442 34.8125 24.6137 38.6364 19.9094 38.6364C15.2051 38.6364 11.3768 34.8125 11.3768 30.1137C11.3768 25.4148 15.2051 21.5909 19.9094 21.5909ZM19.9094 10.2273C8.91373 10.2273 0 19.1307 0 30.1137C0 41.0966 8.91373 50 19.9094 50C30.9051 50 39.8188 41.0966 39.8188 30.1137C39.8188 19.1307 30.9051 10.2273 19.9094 10.2273Z" fill="#6420FF"/>
    <path d="M52.3333 38.6364C49.1933 38.6364 46.6449 41.1818 46.6449 44.3182C46.6449 47.4545 49.1933 50 52.3333 50C55.4733 50 58.0217 47.4545 58.0217 44.3182C58.0217 41.1818 55.4733 38.6364 52.3333 38.6364Z" fill="#6420FF"/>
    <path d="M104.667 0H93.2899V12.142C90.7016 10.9148 87.8119 10.2273 84.7572 10.2273C73.7616 10.2273 64.8478 19.1307 64.8478 30.1136C64.8478 41.0966 73.7616 50 84.7572 50C95.7529 50 104.667 41.0966 104.667 30.1136C104.667 29.9205 104.655 29.733 104.65 29.5455H104.667V0ZM84.7572 38.6364C80.0529 38.6364 76.2246 34.8125 76.2246 30.1136C76.2246 25.4148 80.0529 21.5909 84.7572 21.5909C89.4616 21.5909 93.2899 25.4148 93.2899 30.1136C93.2899 34.8125 89.4616 38.6364 84.7572 38.6364Z" fill="#6420FF"/>
    <path d="M125.145 15.9091H113.768V50H125.145V15.9091Z" fill="#6420FF"/>
    <path d="M119.457 0C116.317 0 113.768 2.54545 113.768 5.68182C113.768 8.81818 116.317 11.3636 119.457 11.3636C122.597 11.3636 125.145 8.81818 125.145 5.68182C125.145 2.54545 122.597 0 119.457 0Z" fill="#6420FF"/>
    <path d="M157 22.7273V11.3636H145.623V0H134.246V27.2727C134.246 39.8239 144.434 50 157 50V38.6364C150.726 38.6364 145.623 33.5398 145.623 27.2727V22.7273H157Z" fill="#6420FF"/>
  </g>
  <defs>
    <clipPath id="clip0_3576_10164">
      <rect width="157" height="50" fill="white"/>
    </clipPath>
  </defs>
</svg>