<svg xmlns="http://www.w3.org/2000/svg" width="69" height="22" viewBox="0 0 69 22" fill="none">
  <g clip-path="url(#clip0_4524_7073)">
    <path d="M8.75 9.5C10.82 9.5 12.5 11.18 12.5 13.25C12.5 15.32 10.82 17 8.75 17C6.68 17 5 15.32 5 13.25C5 11.18 6.68 9.5 8.75 9.5ZM8.75 4.5C3.92 4.5 0 8.42 0 13.25C0 18.08 3.92 22 8.75 22C13.58 22 17.5 18.08 17.5 13.25C17.5 8.42 13.58 4.5 8.75 4.5Z" fill="#6420FF"/>
    <path d="M23 17C21.62 17 20.5 18.12 20.5 19.5C20.5 20.88 21.62 22 23 22C24.38 22 25.5 20.88 25.5 19.5C25.5 18.12 24.38 17 23 17Z" fill="#6420FF"/>
    <path d="M46 0H41V5.34C39.86 4.8 38.59 4.5 37.25 4.5C32.42 4.5 28.5 8.42 28.5 13.25C28.5 18.08 32.42 22 37.25 22C42.08 22 46 18.08 46 13.25C46 13.17 46 13.08 46 13V0ZM37.25 17C35.18 17 33.5 15.32 33.5 13.25C33.5 11.18 35.18 9.5 37.25 9.5C39.32 9.5 41 11.18 41 13.25C41 15.32 39.32 17 37.25 17Z" fill="#6420FF"/>
    <path d="M55 7H50V22H55V7Z" fill="#6420FF"/>
    <path d="M52.5 0C51.12 0 50 1.12 50 2.5C50 3.88 51.12 5 52.5 5C53.88 5 55 3.88 55 2.5C55 1.12 53.88 0 52.5 0Z" fill="#6420FF"/>
    <path d="M69 10V5H64V0H59V12C59 17.52 63.48 22 69 22V17C66.24 17 64 14.76 64 12V10H69Z" fill="#6420FF"/>
  </g>
  <defs>
    <clipPath id="clip0_4524_7073">
      <rect width="69" height="22" fill="white"/>
    </clipPath>
  </defs>
</svg>