<svg xmlns="http://www.w3.org/2000/svg" width="60" height="60" viewBox="0 0 60 60" fill="none">
  <path fill-rule="evenodd" clip-rule="evenodd" d="M57.4391 4.45127C57.7422 5.79831 56.8959 7.13599 55.5488 7.43908L42.5001 10.3751V30.0001C42.5001 31.3808 41.3808 32.5001 40 32.5001C38.6193 32.5001 37.5 31.3808 37.5 30.0001V11.5001L32.5 12.6251V30.0001C32.5 31.3808 31.3808 32.5001 30 32.5001C28.6193 32.5001 27.5001 31.3808 27.5001 30.0001V13.7501L22.5001 14.8751V30.0001C22.5001 31.3808 21.3808 32.5001 20.0001 32.5001C18.6193 32.5001 17.5001 31.3808 17.5001 30.0001V16.0001L12.5001 17.1251V30.0001C12.5001 31.3808 11.3808 32.5001 10.0001 32.5001C8.61934 32.5001 7.50005 31.3808 7.50005 30.0001V18.2501L5.54883 18.6891C4.2018 18.9922 2.86411 18.1459 2.56103 16.7988C2.25795 15.4518 3.10424 14.1141 4.45127 13.811L7.50005 13.1251V12.5001C7.50005 11.1193 8.61934 10.0001 10.0001 10.0001C11.2133 10.0001 12.2247 10.8643 12.4522 12.0108L17.5001 10.8751V10.0001C17.5001 8.61934 18.6193 7.50005 20.0001 7.50005C21.2973 7.50005 22.3638 8.48814 22.488 9.75277L27.5001 8.62505V7.50005C27.5001 6.11934 28.6193 5.00005 30 5.00005C31.3808 5.00005 32.5 6.11934 32.5 7.50005L37.5 6.37505V5.00005C37.5 3.61934 38.6193 2.50005 40 2.50005C41.3808 2.50005 42.5001 3.61934 42.5001 5.00005V5.25005L54.4513 2.56103C55.7983 2.25795 57.136 3.10424 57.4391 4.45127Z" fill="#763BFF"/>
  <rect x="7.49951" y="10" width="5" height="21" rx="2.5" fill="#C1A6FF"/>
  <rect x="17.4995" y="7.5" width="5" height="24" rx="2.5" fill="#C1A6FF"/>
  <rect x="27.4995" y="5" width="5" height="30" rx="2.5" fill="#C1A6FF"/>
  <rect x="37.4995" y="2.5" width="5" height="30" rx="2.5" fill="#C1A6FF"/>
  <path d="M4.99951 27.5C3.6188 27.5 2.49951 28.6193 2.49951 30C2.49951 37.3926 4.73349 44.2931 9.41077 49.3715C14.119 54.4835 21.0751 57.5 29.9995 57.5C38.9239 57.5 45.88 54.4835 50.5883 49.3715C55.2655 44.2931 57.4995 37.3926 57.4995 30C57.4995 28.6193 56.3802 27.5 54.9995 27.5H4.99951Z" fill="#763BFF"/>
</svg>