<svg width="52" height="61" viewBox="0 0 52 61" fill="none" xmlns="http://www.w3.org/2000/svg">
<g filter="url(#filter0_d_3292_4217)">
<path d="M44 26.4091C44 40.7273 26 53 26 53C26 53 8 40.7273 8 26.4091C8 21.5267 9.89642 16.8443 13.2721 13.3919C16.6477 9.93952 21.2261 8 26 8C30.7739 8 35.3523 9.93952 38.7279 13.3919C42.1036 16.8443 44 21.5267 44 26.4091Z" fill="#763BFF"/>
<path d="M43 26.4091C43 33.1746 38.7249 39.5811 34.2664 44.3943C32.0562 46.7803 29.8428 48.7299 28.181 50.0833C27.3509 50.7593 26.6603 51.285 26.1793 51.6403C26.1158 51.6872 26.056 51.7311 26 51.772C25.944 51.7311 25.8842 51.6872 25.8207 51.6403C25.3397 51.285 24.6491 50.7593 23.819 50.0833C22.1572 48.7299 19.9438 46.7803 17.7336 44.3943C13.2751 39.5811 9 33.1746 9 26.4091C9 21.7848 10.7964 17.3542 13.9871 14.091C17.177 10.8286 21.4987 9 26 9C30.5013 9 34.823 10.8286 38.0129 14.091C41.2036 17.3542 43 21.7848 43 26.4091Z" stroke="white" stroke-width="2" stroke-linecap="round" stroke-linejoin="round"/>
</g>
<path d="M30.5833 26C30.2518 26 29.9339 25.8683 29.6995 25.6339C29.465 25.3995 29.3333 25.0815 29.3333 24.75C29.3333 24.4185 29.465 24.1005 29.6995 23.8661C29.9339 23.6317 30.2518 23.5 30.5833 23.5C30.9149 23.5 31.2328 23.6317 31.4672 23.8661C31.7016 24.1005 31.8333 24.4185 31.8333 24.75C31.8333 25.0815 31.7016 25.3995 31.4672 25.6339C31.2328 25.8683 30.9149 26 30.5833 26ZM28.0833 22.6667C27.7518 22.6667 27.4339 22.535 27.1994 22.3006C26.965 22.0661 26.8333 21.7482 26.8333 21.4167C26.8333 21.0851 26.965 20.7672 27.1994 20.5328C27.4339 20.2984 27.7518 20.1667 28.0833 20.1667C28.4149 20.1667 28.7328 20.2984 28.9672 20.5328C29.2016 20.7672 29.3333 21.0851 29.3333 21.4167C29.3333 21.7482 29.2016 22.0661 28.9672 22.3006C28.7328 22.535 28.4149 22.6667 28.0833 22.6667ZM23.9167 22.6667C23.5851 22.6667 23.2672 22.535 23.0328 22.3006C22.7984 22.0661 22.6667 21.7482 22.6667 21.4167C22.6667 21.0851 22.7984 20.7672 23.0328 20.5328C23.2672 20.2984 23.5851 20.1667 23.9167 20.1667C24.2482 20.1667 24.5661 20.2984 24.8005 20.5328C25.035 20.7672 25.1667 21.0851 25.1667 21.4167C25.1667 21.7482 25.035 22.0661 24.8005 22.3006C24.5661 22.535 24.2482 22.6667 23.9167 22.6667ZM21.4167 26C21.0851 26 20.7672 25.8683 20.5328 25.6339C20.2984 25.3995 20.1667 25.0815 20.1667 24.75C20.1667 24.4185 20.2984 24.1005 20.5328 23.8661C20.7672 23.6317 21.0851 23.5 21.4167 23.5C21.7482 23.5 22.0661 23.6317 22.3006 23.8661C22.535 24.1005 22.6667 24.4185 22.6667 24.75C22.6667 25.0815 22.535 25.3995 22.3006 25.6339C22.0661 25.8683 21.7482 26 21.4167 26ZM26 18.5C24.0109 18.5 22.1032 19.2902 20.6967 20.6967C19.2902 22.1032 18.5 24.0109 18.5 26C18.5 27.9891 19.2902 29.8968 20.6967 31.3033C22.1032 32.7098 24.0109 33.5 26 33.5C26.3315 33.5 26.6495 33.3683 26.8839 33.1339C27.1183 32.8995 27.25 32.5815 27.25 32.25C27.25 31.925 27.125 31.6333 26.925 31.4167C26.7333 31.1917 26.6083 30.9 26.6083 30.5833C26.6083 30.2518 26.74 29.9339 26.9745 29.6995C27.2089 29.465 27.5268 29.3333 27.8583 29.3333H29.3333C30.4384 29.3333 31.4982 28.8943 32.2796 28.1129C33.061 27.3315 33.5 26.2717 33.5 25.1667C33.5 21.4833 30.1417 18.5 26 18.5Z" fill="white"/>
<defs>
<filter id="filter0_d_3292_4217" x="0" y="0" width="52" height="61" filterUnits="userSpaceOnUse" color-interpolation-filters="sRGB">
<feFlood flood-opacity="0" result="BackgroundImageFix"/>
<feColorMatrix in="SourceAlpha" type="matrix" values="0 0 0 0 0 0 0 0 0 0 0 0 0 0 0 0 0 0 127 0" result="hardAlpha"/>
<feOffset/>
<feGaussianBlur stdDeviation="4"/>
<feComposite in2="hardAlpha" operator="out"/>
<feColorMatrix type="matrix" values="0 0 0 0 0 0 0 0 0 0 0 0 0 0 0 0 0 0 0.2 0"/>
<feBlend mode="normal" in2="BackgroundImageFix" result="effect1_dropShadow_3292_4217"/>
<feBlend mode="normal" in="SourceGraphic" in2="effect1_dropShadow_3292_4217" result="shape"/>
</filter>
</defs>
</svg>
