<svg width="32" height="32" viewBox="0 0 32 32" fill="none" xmlns="http://www.w3.org/2000/svg">
<g filter="url(#filter0_d_3292_4212)">
<circle cx="16" cy="16" r="12" fill="#763BFF"/>
<circle cx="16" cy="16" r="11.5" stroke="white"/>
</g>
<path d="M19.2083 16C18.9763 16 18.7537 15.9078 18.5896 15.7437C18.4255 15.5796 18.3333 15.3571 18.3333 15.125C18.3333 14.8929 18.4255 14.6704 18.5896 14.5063C18.7537 14.3422 18.9763 14.25 19.2083 14.25C19.4404 14.25 19.663 14.3422 19.8271 14.5063C19.9911 14.6704 20.0833 14.8929 20.0833 15.125C20.0833 15.3571 19.9911 15.5796 19.8271 15.7437C19.663 15.9078 19.4404 16 19.2083 16ZM17.4583 13.6667C17.2263 13.6667 17.0037 13.5745 16.8396 13.4104C16.6755 13.2463 16.5833 13.0237 16.5833 12.7917C16.5833 12.5596 16.6755 12.337 16.8396 12.1729C17.0037 12.0089 17.2263 11.9167 17.4583 11.9167C17.6904 11.9167 17.913 12.0089 18.0771 12.1729C18.2411 12.337 18.3333 12.5596 18.3333 12.7917C18.3333 13.0237 18.2411 13.2463 18.0771 13.4104C17.913 13.5745 17.6904 13.6667 17.4583 13.6667ZM14.5417 13.6667C14.3096 13.6667 14.087 13.5745 13.9229 13.4104C13.7589 13.2463 13.6667 13.0237 13.6667 12.7917C13.6667 12.5596 13.7589 12.337 13.9229 12.1729C14.087 12.0089 14.3096 11.9167 14.5417 11.9167C14.7737 11.9167 14.9963 12.0089 15.1604 12.1729C15.3245 12.337 15.4167 12.5596 15.4167 12.7917C15.4167 13.0237 15.3245 13.2463 15.1604 13.4104C14.9963 13.5745 14.7737 13.6667 14.5417 13.6667ZM12.7917 16C12.5596 16 12.337 15.9078 12.1729 15.7437C12.0089 15.5796 11.9167 15.3571 11.9167 15.125C11.9167 14.8929 12.0089 14.6704 12.1729 14.5063C12.337 14.3422 12.5596 14.25 12.7917 14.25C13.0237 14.25 13.2463 14.3422 13.4104 14.5063C13.5745 14.6704 13.6667 14.8929 13.6667 15.125C13.6667 15.3571 13.5745 15.5796 13.4104 15.7437C13.2463 15.9078 13.0237 16 12.7917 16ZM16 10.75C14.6076 10.75 13.2723 11.3031 12.2877 12.2877C11.3031 13.2723 10.75 14.6076 10.75 16C10.75 17.3924 11.3031 18.7277 12.2877 19.7123C13.2723 20.6969 14.6076 21.25 16 21.25C16.2321 21.25 16.4546 21.1578 16.6187 20.9937C16.7828 20.8296 16.875 20.6071 16.875 20.375C16.875 20.1475 16.7875 19.9433 16.6475 19.7917C16.5133 19.6342 16.4258 19.43 16.4258 19.2083C16.4258 18.9763 16.518 18.7537 16.6821 18.5896C16.8462 18.4255 17.0688 18.3333 17.3008 18.3333H18.3333C19.1069 18.3333 19.8487 18.026 20.3957 17.4791C20.9427 16.9321 21.25 16.1902 21.25 15.4167C21.25 12.8383 18.8992 10.75 16 10.75Z" fill="white"/>
<defs>
<filter id="filter0_d_3292_4212" x="0" y="0" width="32" height="32" filterUnits="userSpaceOnUse" color-interpolation-filters="sRGB">
<feFlood flood-opacity="0" result="BackgroundImageFix"/>
<feColorMatrix in="SourceAlpha" type="matrix" values="0 0 0 0 0 0 0 0 0 0 0 0 0 0 0 0 0 0 127 0" result="hardAlpha"/>
<feOffset/>
<feGaussianBlur stdDeviation="2"/>
<feComposite in2="hardAlpha" operator="out"/>
<feColorMatrix type="matrix" values="0 0 0 0 0 0 0 0 0 0 0 0 0 0 0 0 0 0 0.12 0"/>
<feBlend mode="normal" in2="BackgroundImageFix" result="effect1_dropShadow_3292_4212"/>
<feBlend mode="normal" in="SourceGraphic" in2="effect1_dropShadow_3292_4212" result="shape"/>
</filter>
</defs>
</svg>
