<svg width="52" height="61" viewBox="0 0 52 61" fill="none" xmlns="http://www.w3.org/2000/svg">
<g filter="url(#filter0_d_3292_4216)">
<path d="M44 26.4091C44 40.7273 26 53 26 53C26 53 8 40.7273 8 26.4091C8 21.5267 9.89642 16.8443 13.2721 13.3919C16.6477 9.93952 21.2261 8 26 8C30.7739 8 35.3523 9.93952 38.7279 13.3919C42.1036 16.8443 44 21.5267 44 26.4091Z" fill="#763BFF"/>
<path d="M43 26.4091C43 33.1746 38.7249 39.5811 34.2664 44.3943C32.0562 46.7803 29.8428 48.7299 28.181 50.0833C27.3509 50.7593 26.6603 51.285 26.1793 51.6403C26.1158 51.6872 26.056 51.7311 26 51.772C25.944 51.7311 25.8842 51.6872 25.8207 51.6403C25.3397 51.285 24.6491 50.7593 23.819 50.0833C22.1572 48.7299 19.9438 46.7803 17.7336 44.3943C13.2751 39.5811 9 33.1746 9 26.4091C9 21.7848 10.7964 17.3542 13.9871 14.091C17.177 10.8286 21.4987 9 26 9C30.5013 9 34.823 10.8286 38.0129 14.091C41.2036 17.3542 43 21.7848 43 26.4091Z" stroke="white" stroke-width="2" stroke-linecap="round" stroke-linejoin="round"/>
</g>
<path d="M17.75 31.25V20H19.25V27.5H25.25V21.5H31.25C32.075 21.5 32.7813 21.7938 33.3688 22.3813C33.9563 22.9688 34.25 23.675 34.25 24.5V31.25H32.75V29H19.25V31.25H17.75ZM22.25 26.75C21.625 26.75 21.0938 26.5312 20.6562 26.0938C20.2188 25.6562 20 25.125 20 24.5C20 23.875 20.2188 23.3438 20.6562 22.9062C21.0938 22.4688 21.625 22.25 22.25 22.25C22.875 22.25 23.4062 22.4688 23.8438 22.9062C24.2812 23.3438 24.5 23.875 24.5 24.5C24.5 25.125 24.2812 25.6562 23.8438 26.0938C23.4062 26.5312 22.875 26.75 22.25 26.75Z" fill="white"/>
<defs>
<filter id="filter0_d_3292_4216" x="0" y="0" width="52" height="61" filterUnits="userSpaceOnUse" color-interpolation-filters="sRGB">
<feFlood flood-opacity="0" result="BackgroundImageFix"/>
<feColorMatrix in="SourceAlpha" type="matrix" values="0 0 0 0 0 0 0 0 0 0 0 0 0 0 0 0 0 0 127 0" result="hardAlpha"/>
<feOffset/>
<feGaussianBlur stdDeviation="4"/>
<feComposite in2="hardAlpha" operator="out"/>
<feColorMatrix type="matrix" values="0 0 0 0 0 0 0 0 0 0 0 0 0 0 0 0 0 0 0.2 0"/>
<feBlend mode="normal" in2="BackgroundImageFix" result="effect1_dropShadow_3292_4216"/>
<feBlend mode="normal" in="SourceGraphic" in2="effect1_dropShadow_3292_4216" result="shape"/>
</filter>
</defs>
</svg>
