<svg width="52" height="61" viewBox="0 0 52 61" fill="none" xmlns="http://www.w3.org/2000/svg">
<g filter="url(#filter0_d_3292_4214)">
<path d="M44 26.4091C44 40.7273 26 53 26 53C26 53 8 40.7273 8 26.4091C8 21.5267 9.89642 16.8443 13.2721 13.3919C16.6477 9.93952 21.2261 8 26 8C30.7739 8 35.3523 9.93952 38.7279 13.3919C42.1036 16.8443 44 21.5267 44 26.4091Z" fill="#763BFF"/>
<path d="M43 26.4091C43 33.1746 38.7249 39.5811 34.2664 44.3943C32.0562 46.7803 29.8428 48.7299 28.181 50.0833C27.3509 50.7593 26.6603 51.285 26.1793 51.6403C26.1158 51.6872 26.056 51.7311 26 51.772C25.944 51.7311 25.8842 51.6872 25.8207 51.6403C25.3397 51.285 24.6491 50.7593 23.819 50.0833C22.1572 48.7299 19.9438 46.7803 17.7336 44.3943C13.2751 39.5811 9 33.1746 9 26.4091C9 21.7848 10.7964 17.3542 13.9871 14.091C17.177 10.8286 21.4987 9 26 9C30.5013 9 34.823 10.8286 38.0129 14.091C41.2036 17.3542 43 21.7848 43 26.4091Z" stroke="white" stroke-width="2" stroke-linecap="round" stroke-linejoin="round"/>
</g>
<path fill-rule="evenodd" clip-rule="evenodd" d="M18.75 22.25H32.25C33.2446 22.25 34.1984 22.6451 34.9016 23.3483C35.6049 24.0516 36 25.0054 36 26C36 26.9946 35.6049 27.9484 34.9016 28.6517C34.1984 29.3549 33.2446 29.75 32.25 29.75C32.25 30.7446 31.8549 31.6984 31.1517 32.4016C30.4484 33.1049 29.4946 33.5 28.5 33.5H22.5C21.5054 33.5 20.5516 33.1049 19.8483 32.4016C19.1451 31.6984 18.75 30.7446 18.75 29.75V22.25ZM32.25 28.25C32.8467 28.25 33.419 28.0129 33.841 27.591C34.2629 27.169 34.5 26.5967 34.5 26C34.5 25.4033 34.2629 24.831 33.841 24.409C33.419 23.9871 32.8467 23.75 32.25 23.75V28.25Z" fill="white"/>
<path fill-rule="evenodd" clip-rule="evenodd" d="M23.25 17V20.75H21.75V17H23.25Z" fill="white"/>
<path fill-rule="evenodd" clip-rule="evenodd" d="M26.25 17V20.75H24.75V17H26.25Z" fill="white"/>
<path fill-rule="evenodd" clip-rule="evenodd" d="M29.25 17V20.75H27.75V17H29.25Z" fill="white"/>
<defs>
<filter id="filter0_d_3292_4214" x="0" y="0" width="52" height="61" filterUnits="userSpaceOnUse" color-interpolation-filters="sRGB">
<feFlood flood-opacity="0" result="BackgroundImageFix"/>
<feColorMatrix in="SourceAlpha" type="matrix" values="0 0 0 0 0 0 0 0 0 0 0 0 0 0 0 0 0 0 127 0" result="hardAlpha"/>
<feOffset/>
<feGaussianBlur stdDeviation="4"/>
<feComposite in2="hardAlpha" operator="out"/>
<feColorMatrix type="matrix" values="0 0 0 0 0 0 0 0 0 0 0 0 0 0 0 0 0 0 0.2 0"/>
<feBlend mode="normal" in2="BackgroundImageFix" result="effect1_dropShadow_3292_4214"/>
<feBlend mode="normal" in="SourceGraphic" in2="effect1_dropShadow_3292_4214" result="shape"/>
</filter>
</defs>
</svg>
