<svg width="32" height="32" viewBox="0 0 32 32" fill="none" xmlns="http://www.w3.org/2000/svg">
<g filter="url(#filter0_d_3278_3994)">
<circle cx="16" cy="16" r="12" fill="#763BFF"/>
<circle cx="16" cy="16" r="11.5" stroke="white"/>
</g>
<path fill-rule="evenodd" clip-rule="evenodd" d="M11.5 13.5H20.5C21.163 13.5 21.7989 13.7634 22.2678 14.2322C22.7366 14.7011 23 15.337 23 16C23 16.663 22.7366 17.2989 22.2678 17.7678C21.7989 18.2366 21.163 18.5 20.5 18.5C20.5 19.163 20.2366 19.7989 19.7678 20.2678C19.2989 20.7366 18.663 21 18 21H14C13.337 21 12.7011 20.7366 12.2322 20.2678C11.7634 19.7989 11.5 19.163 11.5 18.5V13.5ZM20.5 17.5C20.8978 17.5 21.2794 17.342 21.5607 17.0607C21.842 16.7794 22 16.3978 22 16C22 15.6022 21.842 15.2206 21.5607 14.9393C21.2794 14.658 20.8978 14.5 20.5 14.5V17.5Z" fill="white"/>
<path fill-rule="evenodd" clip-rule="evenodd" d="M14.5 10V12.5H13.5V10H14.5Z" fill="white"/>
<path fill-rule="evenodd" clip-rule="evenodd" d="M16.5 10V12.5H15.5V10H16.5Z" fill="white"/>
<path fill-rule="evenodd" clip-rule="evenodd" d="M18.5 10V12.5H17.5V10H18.5Z" fill="white"/>
<defs>
<filter id="filter0_d_3278_3994" x="0" y="0" width="32" height="32" filterUnits="userSpaceOnUse" color-interpolation-filters="sRGB">
<feFlood flood-opacity="0" result="BackgroundImageFix"/>
<feColorMatrix in="SourceAlpha" type="matrix" values="0 0 0 0 0 0 0 0 0 0 0 0 0 0 0 0 0 0 127 0" result="hardAlpha"/>
<feOffset/>
<feGaussianBlur stdDeviation="2"/>
<feComposite in2="hardAlpha" operator="out"/>
<feColorMatrix type="matrix" values="0 0 0 0 0 0 0 0 0 0 0 0 0 0 0 0 0 0 0.12 0"/>
<feBlend mode="normal" in2="BackgroundImageFix" result="effect1_dropShadow_3278_3994"/>
<feBlend mode="normal" in="SourceGraphic" in2="effect1_dropShadow_3278_3994" result="shape"/>
</filter>
</defs>
</svg>
