<svg width="32" height="32" viewBox="0 0 32 32" fill="none" xmlns="http://www.w3.org/2000/svg">
<g filter="url(#filter0_d_3292_4210)">
<circle cx="16" cy="16" r="12" fill="#763BFF"/>
<circle cx="16" cy="16" r="11.5" stroke="white"/>
</g>
<g clip-path="url(#clip0_3292_4210)">
<path d="M10.5 16.5C10.5 15.5917 10.8792 14.8647 11.6375 14.319C12.3958 13.7733 13.2667 13.5003 14.25 13.5C15.2333 13.4997 16.1042 13.7727 16.8625 14.319C17.6208 14.8653 18 15.5923 18 16.5H10.5ZM10.5 18.5V17.5H18V18.5H10.5ZM10.5 20.5V19.5H18V20.5H10.5ZM19 20.5V16.5C19 15.55 18.675 14.7292 18.025 14.0375C17.375 13.3458 16.5792 12.8833 15.6375 12.65L15.5 11.5H18V9.5H19V11.5H21.5L20.6 20.5H19Z" fill="white"/>
</g>
<defs>
<filter id="filter0_d_3292_4210" x="0" y="0" width="32" height="32" filterUnits="userSpaceOnUse" color-interpolation-filters="sRGB">
<feFlood flood-opacity="0" result="BackgroundImageFix"/>
<feColorMatrix in="SourceAlpha" type="matrix" values="0 0 0 0 0 0 0 0 0 0 0 0 0 0 0 0 0 0 127 0" result="hardAlpha"/>
<feOffset/>
<feGaussianBlur stdDeviation="2"/>
<feComposite in2="hardAlpha" operator="out"/>
<feColorMatrix type="matrix" values="0 0 0 0 0 0 0 0 0 0 0 0 0 0 0 0 0 0 0.12 0"/>
<feBlend mode="normal" in2="BackgroundImageFix" result="effect1_dropShadow_3292_4210"/>
<feBlend mode="normal" in="SourceGraphic" in2="effect1_dropShadow_3292_4210" result="shape"/>
</filter>
<clipPath id="clip0_3292_4210">
<rect width="12" height="12" fill="white" transform="translate(10 9)"/>
</clipPath>
</defs>
</svg>
