<svg xmlns="http://www.w3.org/2000/svg" width="72" height="72" viewBox="0 0 72 72" fill="none">
  <path d="M56.313 39.9299L57.447 41.6189L45.606 50.2139L45 50.6639V56.9699C45 57.7655 44.6839 58.5286 44.1213 59.0912C43.5587 59.6538 42.7956 59.9699 42 59.9699C41.2043 59.9699 40.4413 59.6538 39.8787 59.0912C39.3161 58.5286 39 57.7655 39 56.9699V56.7899C38.952 56.4123 38.7623 56.0671 38.4692 55.8242C38.1762 55.5812 37.8017 55.4588 37.4218 55.4817C37.0418 55.5046 36.6848 55.6711 36.423 55.9474C36.1613 56.2237 36.0143 56.5892 36.012 56.9699V61.4729C36.0121 62.2426 35.7163 62.9829 35.1859 63.5407C34.6555 64.0984 33.9309 64.431 33.1622 64.4695C32.3934 64.508 31.6393 64.2496 31.0557 63.7477C30.4722 63.2458 30.1039 62.5387 30.027 61.7729L25.707 64.8929C21.24 68.1149 14.997 64.9259 15 59.4149L15.009 19.9949H17.259C33.321 19.9949 47.547 27.8459 56.313 39.9299ZM27.012 32.9699C27.8076 32.9699 28.5707 32.6538 29.1333 32.0912C29.6959 31.5286 30.012 30.7655 30.012 29.9699C30.012 29.1742 29.6959 28.4112 29.1333 27.8486C28.5707 27.2859 27.8076 26.9699 27.012 26.9699C26.2163 26.9699 25.4533 27.2859 24.8907 27.8486C24.3281 28.4112 24.012 29.1742 24.012 29.9699C24.012 30.7655 24.3281 31.5286 24.8907 32.0912C25.4533 32.6538 26.2163 32.9699 27.012 32.9699ZM39.012 41.9639C39.8076 41.9639 40.5707 41.6478 41.1333 41.0852C41.6959 40.5226 42.012 39.7595 42.012 38.9639C42.012 38.1682 41.6959 37.4052 41.1333 36.8426C40.5707 36.2799 39.8076 35.9639 39.012 35.9639C38.2163 35.9639 37.4533 36.2799 36.8907 36.8426C36.3281 37.4052 36.012 38.1682 36.012 38.9639C36.012 39.7595 36.3281 40.5226 36.8907 41.0852C37.4533 41.6478 38.2163 41.9639 39.012 41.9639ZM27.012 50.9579C27.8076 50.9579 28.5707 50.6418 29.1333 50.0792C29.6959 49.5166 30.012 48.7535 30.012 47.9579C30.012 47.1622 29.6959 46.3992 29.1333 45.8366C28.5707 45.2739 27.8076 44.9579 27.012 44.9579C26.2163 44.9579 25.4533 45.2739 24.8907 45.8366C24.3281 46.3992 24.012 47.1622 24.012 47.9579C24.012 48.7535 24.3281 49.5166 24.8907 50.0792C25.4533 50.6418 26.2163 50.9579 27.012 50.9579Z" fill="#763BFF"/>
  <path d="M15.009 13.98C15.009 9.49196 18.702 5.56796 23.472 6.03896C39.004 7.57708 53.3939 14.8855 63.798 26.52C67.008 30.099 66.009 35.412 62.361 38.055L61.092 38.976L60.003 37.356L59.979 37.323C50.409 24.102 34.839 15.498 17.259 15.498H15.009V13.98Z" fill="#C1A6FF"/>
</svg>