<svg width="68" height="90" viewBox="0 0 68 90" fill="none" xmlns="http://www.w3.org/2000/svg">
<circle cx="26" cy="26" r="26" fill="url(#paint0_linear_4196_8281)"/>
<path d="M14 29.9496C14 28.7641 14.6982 27.6897 15.7816 27.2082L30.7816 20.5415C31.5573 20.1968 32.4427 20.1968 33.2184 20.5415L48.7816 27.4585C49.5573 27.8032 50.4427 27.8032 51.2184 27.4585L63.7816 21.8749C65.7654 20.9931 68 22.4453 68 24.6163V58.0504C68 59.2359 67.3018 60.3103 66.2184 60.7918L51.2184 67.4585C50.4427 67.8032 49.5573 67.8032 48.7816 67.4585L33.2184 60.5415C32.4427 60.1968 31.5573 60.1968 30.7816 60.5415L18.2184 66.1251C16.2346 67.0069 14 65.5547 14 63.3837V29.9496Z" fill="#EFE9FF"/>
<path d="M50 27.7168C49.5847 27.7168 49.1694 27.6306 48.7816 27.4582L33.2184 20.5413C32.8306 20.3689 32.4153 20.2827 32 20.2827V60.2827C32.4153 60.2827 32.8306 60.3689 33.2184 60.5413L48.7816 67.4582C49.1694 67.6306 49.5847 67.7168 50 67.7168V27.7168Z" fill="#DED0FF"/>
<path fill-rule="evenodd" clip-rule="evenodd" d="M55 33L55.5547 33.8321C55.2188 34.056 54.7807 34.0556 54.4448 33.8317L54.4419 33.8298L54.4352 33.8253L54.4123 33.8098C54.3928 33.7966 54.3651 33.7776 54.3296 33.753C54.2585 33.7038 54.1565 33.6321 54.0278 33.5392C53.7705 33.3534 53.4064 33.0822 52.9708 32.7354C52.1013 32.043 50.9394 31.0428 49.774 29.8127C47.4843 27.3958 45 23.9019 45 20C45 17.3478 46.0536 14.8043 47.9289 12.9289C49.8043 11.0536 52.3478 10 55 10C57.6522 10 60.1957 11.0536 62.0711 12.9289C63.9464 14.8043 65 17.3478 65 20C65 23.9019 62.5157 27.3958 60.226 29.8127C59.0606 31.0428 57.8987 32.043 57.0292 32.7354C56.5936 33.0822 56.2295 33.3534 55.9722 33.5392C55.8435 33.6321 55.7415 33.7038 55.6704 33.753C55.6349 33.7776 55.6072 33.7966 55.5877 33.8098L55.5648 33.8253L55.5581 33.8298L55.556 33.8312C55.556 33.8312 55.5547 33.8321 55 33ZM54.4448 33.8317C54.4448 33.8317 54.4453 33.8321 55 33L54.4448 33.8317ZM58 20C58 21.6569 56.6569 23 55 23C53.3431 23 52 21.6569 52 20C52 18.3431 53.3431 17 55 17C56.6569 17 58 18.3431 58 20Z" fill="#A883FF"/>
<path d="M8.998 39.9993L13.9994 34.9995L25.999 46.9997L20.999 51.9997L8.998 39.9993Z" fill="#8A58FF"/>
<path d="M26.999 54L20.999 52L25.999 47L27.999 53L26.999 54Z" fill="white"/>
<path d="M5.99871 37.0009L10.9996 32.0015L13.998 35.001L8.99805 40.001L5.99871 37.0009Z" fill="#C1A6FF"/>
<ellipse cx="30" cy="2" rx="30" ry="2" transform="matrix(1 0 0 -1 6 90)" fill="#EFE9FF"/>
<defs>
<linearGradient id="paint0_linear_4196_8281" x1="26" y1="0" x2="26" y2="52" gradientUnits="userSpaceOnUse">
<stop stop-color="#F6F2FF"/>
<stop offset="1" stop-color="#F6F2FF" stop-opacity="0"/>
</linearGradient>
</defs>
</svg>
