<svg xmlns="http://www.w3.org/2000/svg" width="72" height="72" viewBox="0 0 72 72" fill="none">
  <path d="M10.0194 47.9997C8.41957 45.2288 7.28003 41.668 6.63202 38.2804C6.29844 36.5366 7.6916 35 9.46708 35H62.5329C64.3083 35 65.7015 36.5366 65.3679 38.2804C64.7199 41.668 63.5804 45.2288 61.9805 47.9997C59.3475 52.5602 55.5604 56.3472 51 58.9802V63.0002C51 63.7958 50.6839 64.5589 50.1213 65.1215C49.5587 65.6841 48.7956 66.0002 48 66.0002H24C23.2043 66.0002 22.4413 65.6841 21.8786 65.1215C21.316 64.5589 21 63.7958 21 63.0002V58.9802C16.4395 56.3472 12.6524 52.5602 10.0194 47.9997Z" fill="#763BFF"/>
  <path d="M61.4743 24.7956C62.4197 26.3713 62.945 28.1632 63 30H9C9.05804 28.1603 9.5879 26.3664 10.5387 24.7905C11.4896 23.2145 12.8295 21.9093 14.43 21.0002C14.8139 18.3767 16.134 15.9807 18.1467 14.2548C20.1594 12.5288 22.7287 11.5895 25.38 11.6102C26.3924 11.6131 27.4005 11.7441 28.38 12.0002C30.4449 10.0287 33.1901 8.92871 36.045 8.92871C38.8999 8.92871 41.6451 10.0287 43.71 12.0002C44.6895 11.7441 45.6975 11.6131 46.71 11.6102C49.351 11.604 51.9058 12.5499 53.9059 14.2745C55.9061 15.9992 57.2176 18.387 57.6 21.0002C59.1949 21.913 60.5288 23.2198 61.4743 24.7956Z" fill="#C1A6FF"/>
</svg>