<svg xmlns="http://www.w3.org/2000/svg" width="54" height="54" viewBox="0 0 54 54" fill="none">
  <g clip-path="url(#clip0_3805_8655)">
    <path fill-rule="evenodd" clip-rule="evenodd" d="M7.71429 1.10067e-07C7.34756 -0.000123764 6.9884 0.104314 6.67893 0.301066C6.36945 0.497819 6.12249 0.778729 5.967 1.11086L0.181286 13.4884C0.0394002 13.793 -0.020433 14.1294 0.00771429 14.4643H0V18.1093C0 20.1304 0.871714 22.0667 2.43 23.4939C3.98057 24.921 6.09043 25.7233 8.289 25.7233H9.44614C11.61 25.7371 13.701 24.9419 15.309 23.4939C15.9441 22.9101 16.4584 22.257 16.8519 21.5344C17.3417 20.8787 18.1363 20.8787 18.5953 21.4804C18.9939 22.2261 19.5171 22.8973 20.1651 23.4939C21.7196 24.921 23.8294 25.7233 26.028 25.7233H28.0993C30.2632 25.7371 32.3541 24.9419 33.9621 23.4939C34.5664 22.9359 35.0627 22.3136 35.451 21.627C35.9563 20.8363 36.8396 20.8556 37.3024 21.5884C37.6959 22.2904 38.1999 22.9256 38.8144 23.4939C40.3689 24.921 42.4787 25.7233 44.6773 25.7233H45.711C47.8749 25.7371 49.9659 24.9419 51.5739 23.4939C53.1283 22.0667 54 20.1304 54 18.1093V14.4643H53.9923C54.0204 14.1294 53.9606 13.793 53.8187 13.4884L48.033 1.11086C47.8775 0.778729 47.6305 0.497819 47.3211 0.301066C47.0116 0.104314 46.6524 -0.000123764 46.2857 1.10067e-07H7.71429Z" fill="#763BFF"/>
    <path d="M3.85767 29.8118V50.1428C3.85767 51.1658 4.26404 52.1469 4.9874 52.8702C5.71075 53.5936 6.69183 54 7.71481 54H22.253V40.4198C22.2513 40.3065 22.2746 40.1941 22.3213 40.0908C22.3679 39.9875 22.4368 39.8957 22.523 39.822C22.7029 39.6604 22.9369 39.5723 23.1787 39.5751H30.8621C31.1039 39.5723 31.3379 39.6604 31.5178 39.822C31.604 39.8957 31.6729 39.9875 31.7196 40.0908C31.7662 40.1941 31.7895 40.3065 31.7878 40.4198V54H46.2862C47.3092 54 48.2903 53.5936 49.0137 52.8702C49.737 52.1469 50.1434 51.1658 50.1434 50.1428V29.7732C45.5765 31.3238 40.1225 30.6604 36.3502 27.7444C31.3475 31.617 22.6651 31.617 17.6585 27.7444C13.9055 30.6488 8.43995 31.3238 3.85767 29.8118Z" fill="#C1A6FF"/>
  </g>
  <defs>
    <clipPath id="clip0_3805_8655">
      <rect width="54" height="54" fill="white"/>
    </clipPath>
  </defs>
</svg>