<svg xmlns="http://www.w3.org/2000/svg" width="82" height="64" viewBox="0 0 82 64" fill="none">
  <g clip-path="url(#clip0_3805_8660)">
    <path d="M9.5581 46.6503C14.9009 51.1628 23.3956 56.9628 30.8397 55.8628C31.6212 55.7503 32.39 55.5503 33.1459 55.3003C31.9672 53.7628 30.9293 52.2503 30.0453 50.8753C27.2393 46.5003 26.3553 41.4753 26.7268 36.6753C24.0875 37.1878 21.7043 38.3003 19.7184 39.8503C18.8856 40.5003 17.63 40.0128 17.8222 38.9753C18.6422 34.7878 22.0503 31.3628 26.5603 30.6878C26.8934 30.6378 27.2393 30.6003 27.5725 30.5878L30.0581 14.1753C30.3143 12.4503 31.0831 10.0878 33.2612 8.4378C35.6443 6.6503 39.7828 4.6253 46.535 4.0253L46.2275 3.7628C43.6393 1.8128 36.9512 -1.4372 22.5115 0.700302C8.07185 2.8378 2.62653 7.8753 0.730284 10.4878C-2.88812e-05 11.4878 -0.102529 12.7503 0.0768461 13.9753L3.17747 34.5128C3.88216 39.1753 5.93216 43.5878 9.5581 46.6628V46.6503ZM20.7947 19.2003C21.3584 18.8128 22.1784 18.9503 22.3065 19.6128C22.3193 19.6753 22.3322 19.7503 22.345 19.8128C22.755 22.5378 20.8587 25.0628 18.104 25.4753C15.3493 25.8878 12.7868 24.0003 12.3768 21.2878C12.364 21.2253 12.364 21.1503 12.3512 21.0878C12.2743 20.4128 13.0175 20.0378 13.6709 20.2503C14.824 20.6253 16.0797 20.7378 17.3481 20.5503C18.6165 20.3628 19.7953 19.8878 20.7818 19.2003H20.7947Z" fill="#C1A6FF"/>
    <path d="M33.5174 48.75C37.2843 54.6125 43.7033 62.6125 51.1474 63.7125C58.5915 64.8125 67.099 59.025 72.429 54.5C76.0549 51.4375 78.1049 47.025 78.8096 42.35L81.9102 21.8125C82.0896 20.5875 81.9871 19.325 81.2568 18.325C79.3605 15.7125 73.9152 10.675 59.4755 8.53746C45.0358 6.39996 38.3605 9.64996 35.7724 11.6C34.773 12.35 34.299 13.525 34.1196 14.75L31.019 35.2875C30.3143 39.95 30.9677 44.7625 33.5302 48.75H33.5174ZM51.8265 29.4125C50.8399 28.725 49.674 28.25 48.3927 28.0625C47.1115 27.875 45.8558 27.9875 44.7155 28.3625C44.0621 28.575 43.319 28.2 43.3958 27.525C43.4087 27.4625 43.4086 27.3875 43.4215 27.325C43.8315 24.6 46.394 22.725 49.1486 23.1375C51.9033 23.55 53.7996 26.075 53.3896 28.8C53.3768 28.8625 53.364 28.9375 53.3511 29C53.223 29.6625 52.403 29.8 51.8393 29.4125H51.8265ZM69.2771 31.35C69.149 32.0125 68.329 32.15 67.7652 31.7625C66.7786 31.075 65.6127 30.6 64.3315 30.4125C63.0502 30.225 61.7946 30.3375 60.6543 30.7125C60.0008 30.925 59.2577 30.55 59.3346 29.875C59.3474 29.8125 59.3474 29.7375 59.3602 29.675C59.7702 26.95 62.3327 25.075 65.0874 25.4875C67.8421 25.9 69.7383 28.425 69.3283 31.15C69.3155 31.2125 69.3027 31.2875 69.2899 31.35H69.2771ZM67.9061 43.775C65.3949 49.3625 59.3474 52.8375 52.9411 51.8875C46.5349 50.9375 41.7815 45.8625 41.0255 39.8C40.8974 38.7625 42.1658 38.2875 42.973 38.9625C46.0352 41.5625 49.8405 43.375 54.1199 44C58.3993 44.625 62.589 44.0125 66.279 42.4C67.2527 41.975 68.329 42.8 67.8933 43.7625L67.9061 43.775Z" fill="#763BFF"/>
  </g>
  <defs>
    <clipPath id="clip0_3805_8660">
      <rect width="82" height="64" fill="white"/>
    </clipPath>
  </defs>
</svg>